<svg width="37" height="37" viewBox="0 0 37 37" fill="none" xmlns="http://www.w3.org/2000/svg">
<rect x="1" y="1.03418" width="35" height="35" rx="17.5" stroke="#656565"/>
<path d="M27.6673 18.5341C27.6688 19.7415 27.4311 20.9372 26.9678 22.0522C26.5045 23.1671 25.8249 24.1793 24.9682 25.0301C24.1184 25.8782 23.1099 26.5506 22.0002 27.0089C20.8904 27.4672 19.7013 27.7023 18.5007 27.7008C13.4379 27.7008 9.33399 23.5969 9.33399 18.5341C9.33069 16.1836 10.2336 13.9224 11.8548 12.2206C12.7102 11.3179 13.7408 10.5992 14.8835 10.1086C16.0262 9.61804 17.2571 9.36583 18.5007 9.36744C19.7013 9.36596 20.8904 9.60106 22.0002 10.0593C23.1099 10.5176 24.1184 11.19 24.9682 12.0381C25.8249 12.8889 26.5045 13.9011 26.9678 15.016C27.4311 16.131 27.6688 17.3267 27.6673 18.5341Z" stroke="#656565" stroke-width="2" stroke-linecap="round" stroke-linejoin="round"/>
<path d="M27.6676 18.5341C26.3302 18.5341 22.6406 18.0299 19.3383 19.4796C15.7509 21.0549 13.1536 23.4987 12.0215 25.0181" stroke="#656565" stroke-width="2" stroke-linecap="round" stroke-linejoin="round"/>
<path d="M15.0625 10.0339C16.4971 11.3581 19.6275 14.7291 20.7917 18.0759C21.9558 21.4226 22.3867 25.5375 22.6525 26.7086" stroke="#656565" stroke-width="2" stroke-linecap="round" stroke-linejoin="round"/>
<path d="M9.4043 17.3883C11.1359 17.4928 15.7197 17.5867 18.653 16.3341C21.5863 15.0815 24.1104 12.7774 24.9762 12.0464M10.0212 22.0234C10.8291 23.9785 12.2858 25.5956 14.1462 26.6026" stroke="#656565" stroke-width="2" stroke-linecap="round" stroke-linejoin="round"/>
<path d="M9.33399 18.5341C9.33069 16.1836 10.2336 13.9224 11.8548 12.2206C12.7102 11.3179 13.7408 10.5992 14.8835 10.1086C16.0262 9.61804 17.2571 9.36583 18.5007 9.36744M22.1673 10.1301C23.2114 10.5865 24.1613 11.2336 24.9682 12.0381C25.8249 12.8889 26.5045 13.9011 26.9678 15.016C27.4311 16.131 27.6688 17.3267 27.6673 18.5341C27.6673 19.6625 27.4634 20.7437 27.0898 21.7424M18.5007 27.7008C19.7013 27.7023 20.8904 27.4672 22.0002 27.0089C23.1099 26.5506 24.1184 25.8782 24.9682 25.0301" stroke="#656565" stroke-width="2" stroke-linecap="round" stroke-linejoin="round"/>
</svg>
