<svg width="37" height="37" viewBox="0 0 37 37" fill="none" xmlns="http://www.w3.org/2000/svg">
<rect x="1" y="1.03418" width="35" height="35" rx="17.5" stroke="#656565"/>
<path d="M15.0146 17.8163C19.6621 17.8163 19.6621 24.0341 15.0146 24.0341H9.33398V17.8163M15.0146 17.8163H9.33398M15.0146 17.8163C19.6621 17.8163 19.6621 12.1174 15.0146 12.1174H9.33398V17.8163M20.334 19.9091C20.334 17.6312 21.9748 15.7841 24.0007 15.7841C26.0265 15.7841 27.6673 17.6312 27.6673 19.9091H20.334ZM20.334 19.9091C20.334 22.187 21.9748 24.0341 24.0007 24.0341C26.5261 24.0341 27.209 22.2008 27.209 22.2008M26.2923 13.0341H21.709" stroke="#656565" stroke-width="1.5" stroke-linecap="round" stroke-linejoin="round"/>
</svg>
