<svg width="30" height="24" viewBox="0 0 30 24" fill="none" xmlns="http://www.w3.org/2000/svg">
<path d="M0.664 23.88V16.104C0.664 14.184 0.856 12.36 1.24 10.632C1.688 8.904 2.392 7.208 3.352 5.544C4.376 3.88 5.688 2.248 7.288 0.647999L11.608 4.008C10.392 5.288 9.4 6.504 8.632 7.65599C7.928 8.80799 7.416 9.96 7.096 11.112C6.84 12.2 6.712 13.352 6.712 14.568L4.024 12.456H12.088V23.88H0.664ZM17.848 23.88V16.104C17.848 14.184 18.04 12.36 18.424 10.632C18.872 8.904 19.576 7.208 20.536 5.544C21.56 3.88 22.872 2.248 24.472 0.647999L28.792 4.008C27.576 5.288 26.584 6.504 25.816 7.65599C25.112 8.80799 24.6 9.96 24.28 11.112C24.024 12.2 23.896 13.352 23.896 14.568L21.208 12.456H29.272V23.88H17.848Z" fill="#E7E7E7"/>
</svg>
