<svg width="37" height="37" viewBox="0 0 37 37" fill="none" xmlns="http://www.w3.org/2000/svg">
<rect x="1" y="1.03418" width="35" height="35" rx="17.5" stroke="#656565"/>
<path d="M18.5007 9.36743C17.2969 9.36743 16.1049 9.60453 14.9927 10.0652C13.8806 10.5259 12.87 11.2011 12.0188 12.0523C10.2998 13.7714 9.33398 16.1029 9.33398 18.5341C9.33398 22.5858 11.9648 26.0233 15.604 27.2424C16.0623 27.3158 16.209 27.0316 16.209 26.7841V25.2349C13.6698 25.7849 13.129 24.0066 13.129 24.0066C12.7073 22.9433 12.1115 22.6591 12.1115 22.6591C11.2773 22.0908 12.1757 22.1091 12.1757 22.1091C13.0923 22.1733 13.5782 23.0533 13.5782 23.0533C14.3757 24.4466 15.7232 24.0341 16.2457 23.8141C16.3282 23.2183 16.5665 22.8149 16.8232 22.5858C14.7882 22.3566 12.6523 21.5683 12.6523 18.0758C12.6523 17.0583 13.0007 16.2424 13.5965 15.5916C13.5048 15.3624 13.184 14.4091 13.6882 13.1716C13.6882 13.1716 14.4582 12.9241 16.209 14.1066C16.9332 13.9049 17.7215 13.8041 18.5007 13.8041C19.2798 13.8041 20.0682 13.9049 20.7923 14.1066C22.5432 12.9241 23.3132 13.1716 23.3132 13.1716C23.8173 14.4091 23.4965 15.3624 23.4048 15.5916C24.0007 16.2424 24.349 17.0583 24.349 18.0758C24.349 21.5774 22.204 22.3474 20.1598 22.5766C20.4898 22.8608 20.7923 23.4199 20.7923 24.2724V26.7841C20.7923 27.0316 20.939 27.3249 21.4065 27.2424C25.0457 26.0141 27.6673 22.5858 27.6673 18.5341C27.6673 17.3303 27.4302 16.1383 26.9695 15.0262C26.5089 13.914 25.8337 12.9035 24.9825 12.0523C24.1313 11.2011 23.1207 10.5259 22.0086 10.0652C20.8964 9.60453 19.7044 9.36743 18.5007 9.36743Z" fill="#656565"/>
</svg>
