<svg width="24" height="25" viewBox="0 0 24 25" fill="none" xmlns="http://www.w3.org/2000/svg">
<path d="M2.5 12.5342C2.5 8.05618 2.5 5.81618 3.891 4.42518C5.282 3.03418 7.521 3.03418 12 3.03418C16.478 3.03418 18.718 3.03418 20.109 4.42518C21.5 5.81618 21.5 8.05518 21.5 12.5342C21.5 17.0122 21.5 19.2522 20.109 20.6432C18.718 22.0342 16.479 22.0342 12 22.0342C7.522 22.0342 5.282 22.0342 3.891 20.6432C2.5 19.2522 2.5 17.0132 2.5 12.5342Z" stroke="black" stroke-width="1.5" stroke-linecap="round" stroke-linejoin="round"/>
<path d="M17.508 7.03418H17.498M16.5 12.5342C16.5 13.7277 16.0259 14.8722 15.182 15.7162C14.3381 16.5601 13.1935 17.0342 12 17.0342C10.8065 17.0342 9.66193 16.5601 8.81802 15.7162C7.97411 14.8722 7.5 13.7277 7.5 12.5342C7.5 11.3407 7.97411 10.1961 8.81802 9.3522C9.66193 8.50829 10.8065 8.03418 12 8.03418C13.1935 8.03418 14.3381 8.50829 15.182 9.3522C16.0259 10.1961 16.5 11.3407 16.5 12.5342Z" stroke="black" stroke-width="1.5" stroke-linecap="round" stroke-linejoin="round"/>
</svg>
