<svg width="37" height="37" viewBox="0 0 37 37" fill="none" xmlns="http://www.w3.org/2000/svg">
<rect x="1" y="1.03418" width="35" height="35" rx="17.5" stroke="#656565"/>
<path d="M18.5007 16.2883C19.3412 15.4293 20.4357 14.8674 21.709 14.8674C23.0461 14.8674 24.3285 15.3986 25.274 16.3441C26.2195 17.2896 26.7507 18.572 26.7507 19.9091V26.7841H24.9173V19.9091C24.9173 19.0582 24.5793 18.2421 23.9776 17.6405C23.3759 17.0388 22.5599 16.7008 21.709 16.7008C20.8581 16.7008 20.042 17.0388 19.4403 17.6405C18.8387 18.2421 18.5007 19.0582 18.5007 19.9091V26.7841H16.6673V15.3258H18.5007V16.2883ZM12.084 13.4924C11.7193 13.4924 11.3696 13.3476 11.1117 13.0897C10.8539 12.8318 10.709 12.4821 10.709 12.1174C10.709 11.7528 10.8539 11.403 11.1117 11.1452C11.3696 10.8873 11.7193 10.7424 12.084 10.7424C12.4487 10.7424 12.7984 10.8873 13.0563 11.1452C13.3141 11.403 13.459 11.7528 13.459 12.1174C13.459 12.4821 13.3141 12.8318 13.0563 13.0897C12.7984 13.3476 12.4487 13.4924 12.084 13.4924ZM11.1673 15.3258H13.0007V26.7841H11.1673V15.3258Z" fill="#656565"/>
</svg>
