<svg width="37" height="37" viewBox="0 0 37 37" fill="none" xmlns="http://www.w3.org/2000/svg">
<rect x="1" y="1.03418" width="35" height="35" rx="17.5" stroke="#656565"/>
<path d="M14.6507 9.36743H22.3507C25.284 9.36743 27.6673 11.7508 27.6673 14.6841V22.3841C27.6673 23.7942 27.1072 25.1465 26.1101 26.1436C25.113 27.1406 23.7607 27.7008 22.3507 27.7008H14.6507C11.7173 27.7008 9.33398 25.3174 9.33398 22.3841V14.6841C9.33398 13.274 9.89413 11.9217 10.8912 10.9246C11.8883 9.92758 13.2406 9.36743 14.6507 9.36743ZM14.4673 11.2008C13.5921 11.2008 12.7527 11.5484 12.1339 12.1673C11.515 12.7862 11.1673 13.6256 11.1673 14.5008V22.5674C11.1673 24.3916 12.6432 25.8674 14.4673 25.8674H22.534C23.4092 25.8674 24.2486 25.5198 24.8674 24.9009C25.4863 24.282 25.834 23.4426 25.834 22.5674V14.5008C25.834 12.6766 24.3582 11.2008 22.534 11.2008H14.4673ZM23.3132 12.5758C23.617 12.5758 23.9085 12.6965 24.1234 12.9114C24.3383 13.1263 24.459 13.4177 24.459 13.7216C24.459 14.0255 24.3383 14.3169 24.1234 14.5318C23.9085 14.7467 23.617 14.8674 23.3132 14.8674C23.0093 14.8674 22.7178 14.7467 22.5029 14.5318C22.288 14.3169 22.1673 14.0255 22.1673 13.7216C22.1673 13.4177 22.288 13.1263 22.5029 12.9114C22.7178 12.6965 23.0093 12.5758 23.3132 12.5758ZM18.5007 13.9508C19.7162 13.9508 20.882 14.4337 21.7416 15.2932C22.6011 16.1527 23.084 17.3185 23.084 18.5341C23.084 19.7497 22.6011 20.9155 21.7416 21.775C20.882 22.6345 19.7162 23.1174 18.5007 23.1174C17.2851 23.1174 16.1193 22.6345 15.2597 21.775C14.4002 20.9155 13.9173 19.7497 13.9173 18.5341C13.9173 17.3185 14.4002 16.1527 15.2597 15.2932C16.1193 14.4337 17.2851 13.9508 18.5007 13.9508ZM18.5007 15.7841C17.7713 15.7841 17.0718 16.0738 16.5561 16.5896C16.0404 17.1053 15.7507 17.8048 15.7507 18.5341C15.7507 19.2634 16.0404 19.9629 16.5561 20.4786C17.0718 20.9944 17.7713 21.2841 18.5007 21.2841C19.23 21.2841 19.9295 20.9944 20.4452 20.4786C20.9609 19.9629 21.2507 19.2634 21.2507 18.5341C21.2507 17.8048 20.9609 17.1053 20.4452 16.5896C19.9295 16.0738 19.23 15.7841 18.5007 15.7841Z" fill="#656565"/>
</svg>
